<?xml version="1.0" standalone="no"?>
<!DOCTYPE svg PUBLIC "-//W3C//DTD SVG 20010904//EN"
 "http://www.w3.org/TR/2001/REC-SVG-20010904/DTD/svg10.dtd">
<svg version="1.0" xmlns="http://www.w3.org/2000/svg"
 width="128.000000pt" height="128.000000pt" viewBox="0 0 128.000000 128.000000"
 preserveAspectRatio="xMidYMid meet">

<g transform="translate(0.000000,128.000000) scale(0.100000,-0.100000)"
fill="#000000" stroke="none">
<path d="M703 1266 c-30 -14 -50 -44 -66 -97 -3 -9 -20 -19 -37 -23 -86 -17
-220 -127 -272 -223 -31 -56 -58 -151 -58 -200 0 -28 -4 -33 -24 -33 -27 0
-40 -22 -23 -39 6 -6 23 -11 37 -11 18 0 42 -17 80 -55 l54 -55 354 0 353 0
57 54 c38 36 67 55 87 58 22 2 30 8 30 23 0 12 -8 21 -20 24 -27 5 -35 19 -35
62 0 19 -7 57 -16 83 -50 147 -156 256 -296 308 -48 17 -58 25 -58 44 0 32
-48 83 -85 89 -16 3 -45 -2 -62 -9z m88 -68 c15 -27 9 -30 -52 -26 l-54 3 26
27 c30 30 63 29 80 -4z m30 -88 c115 -22 224 -95 285 -192 35 -54 64 -142 64
-190 l0 -38 -426 0 -426 0 7 52 c15 108 57 189 134 262 99 92 232 131 362 106z
m289 -495 l-23 -25 -342 0 -342 0 -23 25 -23 25 388 0 388 0 -23 -25z"/>
<path d="M686 1058 c-121 -16 -233 -105 -281 -223 -25 -61 -24 -85 4 -85 11 0
26 22 45 65 42 98 136 174 231 190 78 12 85 15 85 34 0 25 -14 29 -84 19z"/>
<path d="M11 627 c-8 -11 -11 -85 -9 -263 l3 -249 103 -3 c56 -1 102 1 102 5
1 38 18 35 247 -41 127 -42 243 -76 258 -76 15 0 67 13 116 30 106 35 424 177
440 196 18 22 -19 71 -75 99 -61 31 -68 31 -186 0 -115 -30 -110 -29 -110 -6
0 25 -35 68 -72 87 -16 8 -136 39 -266 68 -217 48 -237 54 -240 75 -5 30 -41
51 -115 66 -113 23 -183 27 -196 12z m212 -68 c29 -8 37 -15 37 -32 0 -30 -24
-130 -61 -259 l-32 -108 -58 0 -59 0 0 211 0 212 68 -7 c37 -4 84 -11 105 -17z
m333 -139 c230 -51 277 -67 288 -95 22 -58 -34 -66 -214 -30 -109 22 -134 24
-141 13 -20 -32 -5 -39 140 -68 138 -27 159 -26 321 15 158 40 208 43 241 16
22 -18 22 -19 3 -29 -43 -23 -254 -116 -324 -142 -150 -58 -136 -59 -395 27
-126 41 -231 76 -233 78 -1 1 13 61 30 133 21 81 38 132 46 132 6 0 114 -23
238 -50z"/>
</g>
</svg>
